<svg width="408" height="148" viewBox="0 0 408 148" fill="none" xmlns="http://www.w3.org/2000/svg">
<path d="M38.448 0.871994C39.8133 0.871994 41.0507 2.19466 42.16 4.84C42.16 6.888 39.0453 8.59466 32.816 9.96C24.9653 14.312 18.864 21.9067 14.512 32.744C10.2453 43.5813 8.112 54.2907 8.112 64.872C8.112 81.8533 13.5733 92.776 24.496 97.64L28.592 98.408C37.7227 98.408 44.208 90.4293 48.048 74.472L48.56 69.224C48.56 62.3973 46.256 56.68 41.648 52.072H40.88C39.088 54.12 35.504 61.3307 30.128 73.704L27.312 75.624C24.9227 75.624 23.5573 74.1733 23.216 71.272C31.3227 52.072 36.8267 42.472 39.728 42.472H40.496C50.9067 48.5307 56.112 57.448 56.112 69.224C56.112 82.536 50.6507 93.6293 39.728 102.504C37.936 104.04 34.3093 105.192 28.848 105.96C18.5227 105.96 9.98933 98.4933 3.248 83.56C1.456 77.16 0.56 71.3147 0.56 66.024V64.104C0.56 45.8427 6.40533 28.6053 18.096 12.392C25.6907 4.712 32.4747 0.871994 38.448 0.871994ZM85.868 47.592C89.6227 47.592 91.5 49.0853 91.5 52.072L90.348 54.504L89.58 77.928C89.58 88.5093 91.7133 95.08 95.98 97.64L96.236 99.56C95.98 102.035 94.828 103.272 92.78 103.272H92.012C85.612 98.92 82.412 92.264 82.412 83.304H81.516C78.1027 92.8613 73.964 97.64 69.1 97.64C64.5773 96.36 62.316 92.9893 62.316 87.528C62.316 75.496 67.1373 63.5067 76.78 51.56C80.0227 48.9147 83.052 47.592 85.868 47.592ZM70.38 82.408L69.868 85.992V88.424H71.148C77.548 72.4667 80.748 62.7387 80.748 59.24H80.236C75.2867 64.7867 72.0013 72.5093 70.38 82.408ZM125.035 45.16C127.339 45.16 128.918 49.0427 129.771 56.808C128.918 58.9413 127.51 60.008 125.547 60.008C124.182 59.752 122.816 58.1733 121.451 55.272L119.147 54.504C115.136 54.504 111.51 57.1493 108.267 62.44V63.592C108.267 64.872 114.283 67.0053 126.315 69.992C131.35 72.9787 133.867 76.6053 133.867 80.872C133.867 87.8693 128.235 93.8427 116.971 98.792L112.235 99.56C105.067 98.792 101.483 95.208 101.483 88.808V88.424C101.483 86.376 102.806 85.1813 105.451 84.84C107.499 84.84 108.864 86.9733 109.547 91.24L110.571 92.008H112.747C117.611 92.008 122.134 88.68 126.315 82.024V80.36C126.315 77.8 120.726 75.4107 109.547 73.192C103.659 70.8027 100.715 67.4747 100.715 63.208C100.715 57.6613 105.366 52.456 114.667 47.592C118.763 47.08 122.219 46.2693 125.035 45.16ZM153.661 19.304C156.05 19.816 157.245 21.0107 157.245 22.888L156.477 28.52V30.184C156.477 33.9387 156.904 37.9067 157.757 42.088H158.013C167.912 39.1013 174.056 37.608 176.445 37.608C178.92 38.2907 180.157 39.528 180.157 41.32C180.157 44.2213 177.213 45.672 171.325 45.672L158.013 50.408C158.013 61.928 159.25 77.5867 161.725 97.384C161.213 99.688 159.976 100.84 158.013 100.84H157.757C154.77 100.84 153.277 97 153.277 89.32C152.168 83.6027 151.229 71.1867 150.461 52.072H148.157C140.136 51.56 136.125 49.6827 136.125 46.44C136.125 45.5013 137.021 44.3493 138.813 42.984H140.093L145.981 44.52H150.077L148.925 28.52C148.925 22.376 150.504 19.304 153.661 19.304ZM200.953 46.568C206.329 46.568 209.529 50.3227 210.553 57.832V58.984C210.553 67.2613 206.286 74.856 197.753 81.768C202.702 86.632 211.364 89.064 223.737 89.064C225.614 89.6613 226.553 90.984 226.553 93.032C226.553 95.336 225.06 96.488 222.073 96.488C213.71 96.488 204.921 94.3547 195.705 90.088V93.8C195.705 102.589 193.828 106.984 190.073 106.984C187.428 106.984 186.105 101.907 186.105 91.752V81.768L185.721 78.184L186.617 74.088L185.721 61.8V61.288C185.721 58.984 186.916 57.4053 189.305 56.552C192.633 49.896 196.516 46.568 200.953 46.568ZM194.553 74.6C197.028 74.6 199.801 70.1627 202.873 61.288V55.784L201.337 54.12H200.185C196.43 56.68 194.553 63.5067 194.553 74.6ZM251.287 48.744C257.602 48.744 262.38 53.4373 265.623 62.824L266.135 65.512C266.135 74.6427 261.868 83.9867 253.335 93.544C249.922 96.7013 246.466 98.28 242.967 98.28C237.847 98.28 234.22 95.336 232.087 89.448C231.319 86.7173 230.935 84.328 230.935 82.28V80.744C230.935 67.2613 235.842 57.0213 245.655 50.024C247.362 49.1707 249.239 48.744 251.287 48.744ZM238.487 82.024C238.487 87.8267 239.98 90.728 242.967 90.728C249.196 90.728 254.359 82.7493 258.455 66.792V64.36C257.004 59.0693 254.316 56.424 250.391 56.424C248.855 56.424 248.087 57.4907 248.087 59.624C248.087 61.0747 246.38 62.2267 242.967 63.08C239.98 68.1147 238.487 74.4293 238.487 82.024ZM282.943 25.064C286.442 21.0533 290.196 19.048 294.207 19.048C298.218 19.048 300.607 22.12 301.375 28.264V28.648C301.375 31.72 299.626 38.4187 296.127 48.744L302.143 47.464C309.482 47.464 313.748 52.1573 314.943 61.544V63.464C314.943 74.728 307.86 85.0107 293.695 94.312C289.087 96.104 285.759 97 283.711 97C276.799 97 272.02 92.9893 269.375 84.968C269.546 84.0293 270.612 82.7067 272.575 81C273.514 42.4293 274.324 23.144 275.007 23.144C276.458 21.6933 277.78 20.968 278.975 20.968C281.279 21.8213 282.431 23.1867 282.431 25.064H282.943ZM281.663 60.264H282.175C289.172 47.0373 292.884 36.7973 293.311 29.544V26.6H292.031C290.239 26.6 287.85 31.4213 284.863 41.064C282.73 50.1947 281.663 56.5947 281.663 60.264ZM286.527 68.2L284.607 68.968L281.407 68.712V68.968L280.895 70.632V83.944L280.511 88.68L283.327 89.448C290.58 89.448 297.748 83.9867 304.831 73.064C306.794 68.2 307.775 64.1893 307.775 61.032C307.775 57.1067 305.898 55.144 302.143 55.144H301.631C297.535 55.144 292.5 59.496 286.527 68.2ZM321.593 30.312C324.836 30.9947 326.457 32.4453 326.457 34.664C325.604 37.0533 324.238 38.248 322.361 38.248C319.204 37.6507 317.625 36.072 317.625 33.512C318.478 31.3787 319.801 30.312 321.593 30.312ZM326.457 48.232C327.822 48.232 328.974 49.4693 329.913 51.944L328.761 61.032V67.048C328.761 74.0453 329.956 83.2187 332.345 94.568C331.492 96.1893 330.041 97 327.993 97C324.494 97 322.19 86.76 321.081 66.28V61.8C321.081 52.7547 322.873 48.232 326.457 48.232ZM346.228 26.472C348.617 27.3253 349.812 28.648 349.812 30.44L351.092 79.208V94.952C351.092 97.8533 349.855 99.304 347.38 99.304H345.716C344.18 98.28 343.412 97.0853 343.412 95.72V80.872L342.26 30.184C342.26 28.0507 343.583 26.8133 346.228 26.472ZM380.915 47.848C384.84 47.848 386.803 49.7253 386.803 53.48C387.315 53.48 387.571 54.12 387.571 55.4H388.083L387.571 59.112L388.083 84.968L387.315 105.448C394.995 105.448 400.158 111.08 402.803 122.344C402.803 124.648 401.224 125.971 398.067 126.312C396.616 126.312 394.995 123.112 393.203 116.712C391.496 114.237 389.534 113 387.315 113H386.803C384.072 131.176 381.683 140.264 379.635 140.264C377.16 144.787 373.576 147.048 368.883 147.048C361.971 145.427 358.515 141.971 358.515 136.68V135.912C358.515 127.891 364.232 119.187 375.667 109.8L379.635 107.368L380.147 93.544V90.344H379.635C376.734 94.0133 373.96 95.848 371.315 95.848H370.547C364.659 95.848 361.288 91.3253 360.435 82.28V79.464C360.435 68.5413 364.446 59.0693 372.467 51.048C374.942 48.9147 377.758 47.848 380.915 47.848ZM368.115 77.8V83.944C368.456 86.76 369.096 88.168 370.035 88.168H371.315C373.704 88.168 376.648 79.3787 380.147 61.8V55.4C375.027 55.4 371.016 62.8667 368.115 77.8ZM366.067 136.168C366.408 138.301 367.603 139.368 369.651 139.368C373.747 139.368 376.691 132.072 378.483 117.48H377.715C369.95 124.221 366.067 130.451 366.067 136.168ZM396.343 30.312C399.586 30.9947 401.207 32.4453 401.207 34.664C400.354 37.0533 398.988 38.248 397.111 38.248C393.954 37.6507 392.375 36.072 392.375 33.512C393.228 31.3787 394.551 30.312 396.343 30.312ZM401.207 48.232C402.572 48.232 403.724 49.4693 404.663 51.944L403.511 61.032V67.048C403.511 74.0453 404.706 83.2187 407.095 94.568C406.242 96.1893 404.791 97 402.743 97C399.244 97 396.94 86.76 395.831 66.28V61.8C395.831 52.7547 397.623 48.232 401.207 48.232Z" fill="white"/>
</svg>
